<?xml version="1.0" encoding="utf-8"?>
<!-- Generator: Adobe Illustrator 16.0.4, SVG Export Plug-In . SVG Version: 6.00 Build 0)  -->
<!DOCTYPE svg PUBLIC "-//W3C//DTD SVG 1.1//EN" "http://www.w3.org/Graphics/SVG/1.1/DTD/svg11.dtd">
<svg version="1.1" id="Layer_1" xmlns="http://www.w3.org/2000/svg" xmlns:xlink="http://www.w3.org/1999/xlink" x="0px" y="0px"
	 width="18.872px" height="25px" viewBox="0 0 18.872 25" enable-background="new 0 0 18.872 25" xml:space="preserve">
<g>
	<g>
		<g>
			<path fill="#010101" d="M6.323,1.65c2.684-1.079,3.283,5.578,2.005,8.077c0,0,2.653,0.231,3.618,0.353
				c1.857,0.231,1.857,3.76,0.272,3.76c2.194,0,1.585,3.721,0,3.721c2.565,0,1.585,3.721,0,3.721c3.344,0,1.585,3.719,0,3.719
				c-1.24,0-8.607,0-8.607,0c-3.71,0.027-3.902-6.795-3.42-11.453c0.258-2.496,3.16-2.678,4.072-4.647
				C5.451,6.337,4.807,2.261,6.323,1.65z"/>
		</g>
	</g>
</g>
</svg>
